<svg width="16" height="16" viewBox="0 0 16 16" fill="none" xmlns="http://www.w3.org/2000/svg">
<path fill-rule="evenodd" clip-rule="evenodd" d="M13.1375 0.304124L13.35 0.33079C13.9117 0.40829 14.655 0.512457 15.0758 0.934123C15.4208 1.27829 15.5533 1.83829 15.6325 2.33829L15.6792 2.65996C15.7842 3.41829 15.8117 4.41162 15.6325 5.51495C15.2792 7.69245 14.12 10.2908 11.2092 12.3025C11.1933 12.4591 11.1925 12.6175 11.1958 12.7758L11.2042 13.0125C11.2175 13.3766 11.2308 13.7408 11.1292 14.0941C10.9708 14.6441 10.4067 15.0066 9.87916 15.2666L9.62083 15.3891L9.28749 15.5358C8.66416 15.8008 7.82249 16.0725 7.29499 15.5441C6.97833 15.2283 6.84833 14.765 6.7425 14.3041L6.70333 14.1316C6.6592 13.9138 6.60357 13.6985 6.53666 13.4866C6.495 13.365 6.45 13.2408 6.40166 13.1158C6.34846 13.1811 6.292 13.2437 6.23249 13.3033C5.94499 13.5908 5.51583 13.7916 5.1625 13.9325C4.77666 14.085 4.33999 14.2183 3.93583 14.3283L3.72833 14.3833L3.33083 14.4825L2.97083 14.5658L2.53999 14.6575L2.27083 14.71C2.13659 14.7348 1.99831 14.7266 1.86793 14.6861C1.73755 14.6456 1.61898 14.574 1.52245 14.4775C1.42591 14.381 1.35431 14.2624 1.31381 14.132C1.27331 14.0016 1.26514 13.8634 1.28999 13.7291L1.36166 13.37L1.48999 12.7883L1.59333 12.3633L1.67166 12.0633C1.78166 11.66 1.91499 11.2233 2.06833 10.8383C2.20833 10.4841 2.40916 10.055 2.69666 9.76745L2.76333 9.70329L2.70999 9.68162C2.56758 9.62747 2.42332 9.57827 2.27749 9.53412L2.04666 9.46329C1.46833 9.28829 0.849994 9.09995 0.465828 8.71495C-0.00083895 8.24912 0.156661 7.53995 0.381661 6.94995L0.473328 6.72162L0.620828 6.38829L0.743328 6.12995C1.00333 5.60329 1.36583 5.03912 1.91583 4.88079C2.20749 4.79746 2.51083 4.79246 2.81583 4.80079L2.99916 4.80662C3.23749 4.81496 3.47499 4.82412 3.70749 4.80162C5.71916 1.88996 8.3175 0.73079 10.495 0.377457C11.3685 0.234186 12.2574 0.209519 13.1375 0.304124ZM4.96083 10.8666C4.82967 10.7695 4.67292 10.7131 4.50999 10.7042C4.34706 10.6953 4.1851 10.7344 4.04416 10.8166L3.95249 10.8783L3.87499 10.9475L3.77083 11.0791C3.55416 11.3925 3.43083 11.8258 3.33499 12.2308L3.24499 12.6208L3.20249 12.7983L3.36166 12.76L3.71 12.68C4.19166 12.5675 4.72583 12.4216 5.05416 12.1258C5.19692 11.9831 5.28304 11.7935 5.29653 11.5921C5.31002 11.3907 5.24995 11.1912 5.1275 11.0308L5.05916 10.9525L5.03916 10.9333L4.96083 10.8666ZM10.9467 5.05496C10.7919 4.90016 10.6082 4.77736 10.406 4.69356C10.2038 4.60977 9.98708 4.56662 9.76821 4.56658C9.54933 4.56654 9.33259 4.60961 9.13036 4.69334C8.92813 4.77706 8.74437 4.8998 8.58958 5.05454C8.43478 5.20928 8.31198 5.39299 8.22819 5.59519C8.14439 5.79739 8.10124 6.01412 8.1012 6.23299C8.10116 6.45187 8.14424 6.66861 8.22796 6.87084C8.31168 7.07307 8.43442 7.25683 8.58916 7.41162C8.90168 7.72425 9.32558 7.89992 9.76762 7.9C10.2097 7.90008 10.6336 7.72455 10.9462 7.41204C11.2589 7.09952 11.4345 6.67562 11.4346 6.23358C11.4347 5.79154 11.2592 5.36758 10.9467 5.05496Z" fill="black"/>
</svg>
