<svg width="40" height="40" viewBox="0 0 40 40" fill="none" xmlns="http://www.w3.org/2000/svg">
<path d="M3.33337 36.6667L11.6667 13.3333L26.6667 28.3333L3.33337 36.6667ZM24.25 20.9167L22.5 19.1667L31.8334 9.83333C32.7223 8.94444 33.7917 8.5 35.0417 8.5C36.2917 8.5 37.3612 8.94444 38.25 9.83333L39.25 10.8333L37.5 12.5833L36.5 11.5833C36.1111 11.1944 35.625 11 35.0417 11C34.4584 11 33.9723 11.1944 33.5834 11.5833L24.25 20.9167ZM17.5834 14.25L15.8334 12.5L16.8334 11.5C17.2223 11.1111 17.4167 10.6389 17.4167 10.0833C17.4167 9.52778 17.2223 9.05556 16.8334 8.66667L15.75 7.58333L17.5 5.83333L18.5834 6.91667C19.4723 7.80556 19.9167 8.86111 19.9167 10.0833C19.9167 11.3056 19.4723 12.3611 18.5834 13.25L17.5834 14.25ZM20.9167 17.5833L19.1667 15.8333L25.1667 9.83333C25.5556 9.44445 25.75 8.95833 25.75 8.375C25.75 7.79167 25.5556 7.30556 25.1667 6.91667L22.5 4.25L24.25 2.5L26.9167 5.16667C27.8056 6.05556 28.25 7.125 28.25 8.375C28.25 9.625 27.8056 10.6944 26.9167 11.5833L20.9167 17.5833ZM27.5834 24.25L25.8334 22.5L28.5 19.8333C29.3889 18.9444 30.4584 18.5 31.7084 18.5C32.9584 18.5 34.0278 18.9444 34.9167 19.8333L37.5834 22.5L35.8334 24.25L33.1667 21.5833C32.7778 21.1944 32.2917 21 31.7084 21C31.125 21 30.6389 21.1944 30.25 21.5833L27.5834 24.25Z" fill="#424242"/>
</svg>
