<svg width="21" height="20" viewBox="0 0 21 20" fill="none" xmlns="http://www.w3.org/2000/svg">
<path d="M17.1667 18.3333H15.775C15.333 18.3333 14.9091 18.1577 14.5965 17.8451C14.2839 17.5325 14.1083 17.1086 14.1083 16.6666V12.1916C14.1158 12.0161 14.0627 11.8433 13.9581 11.7023C13.8534 11.5612 13.7035 11.4603 13.5333 11.4166C13.4344 11.4015 13.3333 11.4079 13.237 11.4352C13.1407 11.4625 13.0513 11.5101 12.975 11.5749C12.8964 11.6416 12.8334 11.7246 12.7902 11.8182C12.747 11.9117 12.7248 12.0135 12.725 12.1166V16.6666C12.725 17.1086 12.5494 17.5325 12.2368 17.8451C11.9243 18.1577 11.5004 18.3333 11.0583 18.3333H9.66667C9.22464 18.3333 8.80072 18.1577 8.48816 17.8451C8.1756 17.5325 8.00001 17.1086 8.00001 16.6666V12.1166C8.00001 10.68 8.57069 9.30225 9.58651 8.28642C10.6023 7.2706 11.9801 6.69992 13.4167 6.69992C14.8533 6.69992 16.231 7.2706 17.2468 8.28642C18.2627 9.30225 18.8333 10.68 18.8333 12.1166V16.6666C18.8333 17.1086 18.6577 17.5325 18.3452 17.8451C18.0326 18.1577 17.6087 18.3333 17.1667 18.3333ZM13.4167 9.74159C13.5471 9.73335 13.6779 9.73335 13.8083 9.74159C14.3678 9.84921 14.8715 10.1504 15.2311 10.5923C15.5908 11.0342 15.7833 11.5886 15.775 12.1583V16.6666H17.1667V12.1166C17.1667 11.122 16.7716 10.1682 16.0683 9.46494C15.3651 8.76167 14.4112 8.36659 13.4167 8.36659C12.4221 8.36659 11.4683 8.76167 10.765 9.46494C10.0618 10.1682 9.66667 11.122 9.66667 12.1166V16.6666H11.0583V12.1166C11.0583 11.4896 11.3063 10.888 11.7481 10.4431C12.1899 9.99815 12.7897 9.74599 13.4167 9.74159ZM5.50001 18.3333H3.83334C3.39131 18.3333 2.96739 18.1577 2.65483 17.8451C2.34227 17.5325 2.16667 17.1086 2.16667 16.6666V8.33325C2.16667 7.89123 2.34227 7.4673 2.65483 7.15474C2.96739 6.84218 3.39131 6.66659 3.83334 6.66659H5.50001C5.94203 6.66659 6.36596 6.84218 6.67852 7.15474C6.99108 7.4673 7.16667 7.89123 7.16667 8.33325V16.6666C7.16667 17.1086 6.99108 17.5325 6.67852 17.8451C6.36596 18.1577 5.94203 18.3333 5.50001 18.3333ZM3.83334 8.33325V16.6666H5.50001V8.33325H3.83334ZM4.66667 5.83325C4.17222 5.83325 3.68887 5.68663 3.27775 5.41193C2.86662 5.13722 2.54619 4.74678 2.35697 4.28996C2.16775 3.83315 2.11825 3.33048 2.21471 2.84553C2.31117 2.36057 2.54927 1.91512 2.89891 1.56549C3.24854 1.21585 3.69399 0.977753 4.17895 0.88129C4.6639 0.784827 5.16657 0.834335 5.62338 1.02355C6.0802 1.21277 6.47064 1.5332 6.74535 1.94433C7.02005 2.35545 7.16667 2.8388 7.16667 3.33325C7.16667 3.99629 6.90328 4.63218 6.43444 5.10102C5.9656 5.56986 5.32971 5.83325 4.66667 5.83325ZM4.66667 2.49992C4.50185 2.49992 4.34074 2.54879 4.2037 2.64036C4.06666 2.73193 3.95985 2.86208 3.89677 3.01435C3.8337 3.16662 3.8172 3.33418 3.84935 3.49583C3.88151 3.65748 3.96087 3.80596 4.07742 3.92251C4.19396 4.03905 4.34245 4.11842 4.5041 4.15057C4.66575 4.18273 4.8333 4.16623 4.98558 4.10315C5.13785 4.04008 5.268 3.93327 5.35956 3.79623C5.45113 3.65919 5.50001 3.49807 5.50001 3.33325C5.50001 3.11224 5.41221 2.90028 5.25593 2.744C5.09965 2.58772 4.88769 2.49992 4.66667 2.49992Z" fill="#5E6EC4"/>
</svg>
