<svg width="16" height="16" viewBox="0 0 16 16" fill="none" xmlns="http://www.w3.org/2000/svg">
<path d="M4.6667 9.23061C5.00892 9.23061 5.29958 9.11106 5.5387 8.87195C5.77781 8.63239 5.89736 8.34173 5.89736 7.99995C5.89736 7.65817 5.77781 7.3675 5.5387 7.12795C5.29914 6.88884 5.00847 6.76928 4.6667 6.76928C4.32492 6.76928 4.03425 6.88884 3.7947 7.12795C3.55558 7.3675 3.43603 7.65817 3.43603 7.99995C3.43603 8.34173 3.55558 8.63239 3.7947 8.87195C4.03425 9.11106 4.32492 9.23061 4.6667 9.23061ZM4.6667 11.1539C3.77781 11.1539 3.03003 10.8504 2.42336 10.2433C1.81625 9.63661 1.5127 8.88884 1.5127 7.99995C1.5127 7.11106 1.81625 6.36328 2.42336 5.75661C3.03003 5.1495 3.77781 4.84595 4.6667 4.84595C5.42136 4.84595 6.07492 5.05884 6.62736 5.48461C7.18025 5.91039 7.53447 6.4155 7.69003 6.99995H13.722L14.718 7.99595L13.0647 9.75261L11.846 8.83328L10.628 9.79461L9.59003 8.99995H7.69003C7.53181 9.59461 7.17447 10.1024 6.61803 10.5233C6.06158 10.9437 5.41114 11.1539 4.6667 11.1539Z" fill="#757575"/>
</svg>
