<svg width="16" height="16" viewBox="0 0 16 16" fill="none" xmlns="http://www.w3.org/2000/svg">
<path d="M10.6667 11.3335V12.6668H1.33337V11.3335C1.33337 11.3335 1.33337 8.66678 6.00004 8.66678C10.6667 8.66678 10.6667 11.3335 10.6667 11.3335ZM8.33337 5.00012C8.33337 4.53863 8.19653 4.0875 7.94014 3.70379C7.68375 3.32007 7.31933 3.021 6.89297 2.8444C6.46661 2.66779 5.99745 2.62159 5.54483 2.71162C5.09221 2.80165 4.67645 3.02388 4.35012 3.3502C4.0238 3.67652 3.80157 4.09228 3.71154 4.54491C3.62151 4.99753 3.66772 5.46668 3.84432 5.89304C4.02093 6.31941 4.32 6.68382 4.70371 6.94021C5.08742 7.1966 5.53855 7.33345 6.00004 7.33345C6.61888 7.33345 7.21237 7.08762 7.64996 6.65003C8.08754 6.21245 8.33337 5.61896 8.33337 5.00012ZM10.6267 8.66678C11.0365 8.98395 11.3719 9.38707 11.6092 9.84779C11.8464 10.3085 11.9798 10.8156 12 11.3335V12.6668H14.6667V11.3335C14.6667 11.3335 14.6667 8.91345 10.6267 8.66678ZM10 2.66678C9.54117 2.66423 9.09238 2.80142 8.71337 3.06012C9.11833 3.62594 9.33608 4.30431 9.33608 5.00012C9.33608 5.69593 9.11833 6.37429 8.71337 6.94012C9.09238 7.19881 9.54117 7.336 10 7.33345C10.6189 7.33345 11.2124 7.08762 11.65 6.65003C12.0875 6.21245 12.3334 5.61896 12.3334 5.00012C12.3334 4.38128 12.0875 3.78779 11.65 3.3502C11.2124 2.91262 10.6189 2.66678 10 2.66678Z" fill="#757575"/>
</svg>
