<svg width="19" height="19" viewBox="0 0 19 19" fill="none" xmlns="http://www.w3.org/2000/svg">
<path d="M15.0814 3.88705C14.3556 3.15391 13.4911 2.57262 12.5383 2.17709C11.5855 1.78156 10.5634 1.57971 9.5318 1.5833C5.2093 1.5833 1.68638 5.10622 1.68638 9.42871C1.68638 10.8141 2.05055 12.16 2.73138 13.3475L1.62305 17.4166L5.7793 16.3241C6.92721 16.9495 8.21763 17.282 9.5318 17.282C13.8543 17.282 17.3772 13.7591 17.3772 9.43663C17.3772 7.33872 16.5618 5.36747 15.0814 3.88705ZM9.5318 15.952C8.36013 15.952 7.21221 15.6354 6.2068 15.0416L5.9693 14.8991L3.4993 15.5483L4.15638 13.1416L3.99805 12.8962C3.3471 11.8567 3.00145 10.6552 3.00055 9.42871C3.00055 5.83455 5.92971 2.90538 9.52388 2.90538C11.2655 2.90538 12.9043 3.58622 14.1314 4.82122C14.739 5.42602 15.2205 6.14541 15.548 6.93768C15.8755 7.72995 16.0425 8.57934 16.0393 9.43663C16.0551 13.0308 13.126 15.952 9.5318 15.952ZM13.1101 11.0754C12.9122 10.9804 11.9464 10.5054 11.7722 10.4341C11.5901 10.3708 11.4635 10.3391 11.3289 10.5291C11.1943 10.727 10.8222 11.1704 10.7114 11.297C10.6005 11.4316 10.4818 11.4475 10.2839 11.3445C10.086 11.2495 9.45263 11.0358 8.70846 10.3708C8.12263 9.8483 7.73471 9.20705 7.61596 9.00913C7.50513 8.81121 7.60013 8.7083 7.70305 8.60538C7.79013 8.5183 7.90096 8.3758 7.99596 8.26496C8.09096 8.15413 8.13055 8.06705 8.19388 7.94038C8.25721 7.8058 8.22555 7.69497 8.17805 7.59997C8.13055 7.50497 7.73471 6.53913 7.57638 6.1433C7.41805 5.7633 7.2518 5.8108 7.13305 5.80288H6.75305C6.61846 5.80288 6.41263 5.85038 6.23055 6.0483C6.05638 6.24622 5.54971 6.72122 5.54971 7.68705C5.54971 8.65288 6.2543 9.58705 6.3493 9.71372C6.4443 9.8483 7.73471 11.8275 9.69805 12.6745C10.1651 12.8804 10.5293 12.9991 10.8143 13.0862C11.2814 13.2366 11.7089 13.2129 12.0493 13.1654C12.4293 13.11 13.213 12.6904 13.3714 12.2312C13.5376 11.772 13.5376 11.3841 13.4822 11.297C13.4268 11.21 13.308 11.1704 13.1101 11.0754Z" fill="white"/>
</svg>
